<mxfile host="Electron" agent="Mozilla/5.0 (Windows NT 10.0; Win64; x64) AppleWebKit/537.36 (KHTML, like Gecko) draw.io/25.0.2 Chrome/128.0.6613.186 Electron/32.2.5 Safari/537.36" version="25.0.2">
  <diagram name="Page-1" id="QNCCJMBcyOuxx_6FLKVk">
    <mxGraphModel dx="1050" dy="629" grid="1" gridSize="10" guides="1" tooltips="1" connect="1" arrows="1" fold="1" page="1" pageScale="1" pageWidth="850" pageHeight="1100" math="0" shadow="0">
      <root>
        <mxCell id="0" />
        <mxCell id="1" parent="0" />
        <mxCell id="uxk_E3VfZ14eT021Ah-2-1" value="Member" style="whiteSpace=wrap;html=1;align=center;fontStyle=1;fontSize=20;" parent="1" vertex="1">
          <mxGeometry x="130" y="145" width="100" height="40" as="geometry" />
        </mxCell>
        <mxCell id="uxk_E3VfZ14eT021Ah-2-2" value="&lt;b style=&quot;&quot;&gt;&lt;u style=&quot;&quot;&gt;&lt;font&gt;Id&lt;/font&gt;&lt;/u&gt;&lt;/b&gt;" style="ellipse;whiteSpace=wrap;html=1;align=center;" parent="1" vertex="1">
          <mxGeometry x="23" y="30" width="100" height="40" as="geometry" />
        </mxCell>
        <mxCell id="uxk_E3VfZ14eT021Ah-2-3" value="firstname" style="ellipse;whiteSpace=wrap;html=1;align=center;" parent="1" vertex="1">
          <mxGeometry x="10" y="80" width="100" height="40" as="geometry" />
        </mxCell>
        <mxCell id="uxk_E3VfZ14eT021Ah-2-5" value="lastname" style="ellipse;whiteSpace=wrap;html=1;align=center;" parent="1" vertex="1">
          <mxGeometry x="10" y="145" width="100" height="40" as="geometry" />
        </mxCell>
        <mxCell id="uxk_E3VfZ14eT021Ah-2-9" value="Phone" style="ellipse;whiteSpace=wrap;html=1;align=center;" parent="1" vertex="1">
          <mxGeometry x="130" y="30" width="100" height="40" as="geometry" />
        </mxCell>
        <mxCell id="uxk_E3VfZ14eT021Ah-2-10" value="Email" style="ellipse;whiteSpace=wrap;html=1;align=center;" parent="1" vertex="1">
          <mxGeometry x="240" y="40" width="100" height="40" as="geometry" />
        </mxCell>
        <mxCell id="uxk_E3VfZ14eT021Ah-2-11" value="data_of_registration" style="ellipse;whiteSpace=wrap;html=1;align=center;" parent="1" vertex="1">
          <mxGeometry x="10" y="220" width="140" height="40" as="geometry" />
        </mxCell>
        <mxCell id="uxk_E3VfZ14eT021Ah-2-13" value="" style="endArrow=none;html=1;rounded=0;exitX=0;exitY=1;exitDx=0;exitDy=0;entryX=0.5;entryY=0;entryDx=0;entryDy=0;" parent="1" source="uxk_E3VfZ14eT021Ah-2-1" target="uxk_E3VfZ14eT021Ah-2-11" edge="1">
          <mxGeometry width="50" height="50" relative="1" as="geometry">
            <mxPoint x="400" y="170" as="sourcePoint" />
            <mxPoint x="450" y="120" as="targetPoint" />
          </mxGeometry>
        </mxCell>
        <mxCell id="uxk_E3VfZ14eT021Ah-2-14" value="" style="endArrow=none;html=1;rounded=0;exitX=1;exitY=0.5;exitDx=0;exitDy=0;entryX=0;entryY=0.75;entryDx=0;entryDy=0;" parent="1" source="uxk_E3VfZ14eT021Ah-2-5" target="uxk_E3VfZ14eT021Ah-2-1" edge="1">
          <mxGeometry width="50" height="50" relative="1" as="geometry">
            <mxPoint x="400" y="170" as="sourcePoint" />
            <mxPoint x="450" y="120" as="targetPoint" />
          </mxGeometry>
        </mxCell>
        <mxCell id="uxk_E3VfZ14eT021Ah-2-15" value="" style="endArrow=none;html=1;rounded=0;entryX=1;entryY=0.5;entryDx=0;entryDy=0;exitX=0;exitY=0;exitDx=0;exitDy=0;" parent="1" source="uxk_E3VfZ14eT021Ah-2-1" target="uxk_E3VfZ14eT021Ah-2-3" edge="1">
          <mxGeometry width="50" height="50" relative="1" as="geometry">
            <mxPoint x="400" y="170" as="sourcePoint" />
            <mxPoint x="450" y="120" as="targetPoint" />
          </mxGeometry>
        </mxCell>
        <mxCell id="uxk_E3VfZ14eT021Ah-2-16" value="" style="endArrow=none;html=1;rounded=0;exitX=1;exitY=1;exitDx=0;exitDy=0;entryX=0.44;entryY=0;entryDx=0;entryDy=0;entryPerimeter=0;" parent="1" source="uxk_E3VfZ14eT021Ah-2-2" target="uxk_E3VfZ14eT021Ah-2-1" edge="1">
          <mxGeometry width="50" height="50" relative="1" as="geometry">
            <mxPoint x="400" y="170" as="sourcePoint" />
            <mxPoint x="450" y="120" as="targetPoint" />
          </mxGeometry>
        </mxCell>
        <mxCell id="uxk_E3VfZ14eT021Ah-2-17" value="" style="endArrow=none;html=1;rounded=0;entryX=0.432;entryY=1.11;entryDx=0;entryDy=0;entryPerimeter=0;exitX=0.5;exitY=0;exitDx=0;exitDy=0;" parent="1" source="uxk_E3VfZ14eT021Ah-2-1" target="uxk_E3VfZ14eT021Ah-2-9" edge="1">
          <mxGeometry width="50" height="50" relative="1" as="geometry">
            <mxPoint x="400" y="170" as="sourcePoint" />
            <mxPoint x="450" y="120" as="targetPoint" />
          </mxGeometry>
        </mxCell>
        <mxCell id="uxk_E3VfZ14eT021Ah-2-18" value="" style="endArrow=none;html=1;rounded=0;entryX=0;entryY=1;entryDx=0;entryDy=0;exitX=0.75;exitY=0;exitDx=0;exitDy=0;" parent="1" source="uxk_E3VfZ14eT021Ah-2-1" target="uxk_E3VfZ14eT021Ah-2-10" edge="1">
          <mxGeometry width="50" height="50" relative="1" as="geometry">
            <mxPoint x="400" y="170" as="sourcePoint" />
            <mxPoint x="450" y="120" as="targetPoint" />
          </mxGeometry>
        </mxCell>
        <mxCell id="uxk_E3VfZ14eT021Ah-2-32" value="Book" style="whiteSpace=wrap;html=1;align=center;fontStyle=1;fontSize=20;" parent="1" vertex="1">
          <mxGeometry x="660" y="430" width="100" height="40" as="geometry" />
        </mxCell>
        <mxCell id="uxk_E3VfZ14eT021Ah-2-33" value="isbn" style="ellipse;whiteSpace=wrap;html=1;align=center;fontStyle=4;" parent="1" vertex="1">
          <mxGeometry x="460" y="460" width="100" height="40" as="geometry" />
        </mxCell>
        <mxCell id="uxk_E3VfZ14eT021Ah-2-35" value="title" style="ellipse;whiteSpace=wrap;html=1;align=center;" parent="1" vertex="1">
          <mxGeometry x="460" y="390" width="100" height="40" as="geometry" />
        </mxCell>
        <mxCell id="uxk_E3VfZ14eT021Ah-2-36" value="author" style="ellipse;whiteSpace=wrap;html=1;align=center;" parent="1" vertex="1">
          <mxGeometry x="740" y="310" width="100" height="40" as="geometry" />
        </mxCell>
        <mxCell id="uxk_E3VfZ14eT021Ah-2-37" value="genre" style="ellipse;whiteSpace=wrap;html=1;align=center;" parent="1" vertex="1">
          <mxGeometry x="600" y="550" width="100" height="40" as="geometry" />
        </mxCell>
        <mxCell id="uxk_E3VfZ14eT021Ah-2-38" value="cover" style="ellipse;whiteSpace=wrap;html=1;align=center;" parent="1" vertex="1">
          <mxGeometry x="720" y="540" width="100" height="40" as="geometry" />
        </mxCell>
        <mxCell id="uxk_E3VfZ14eT021Ah-2-39" value="copies_available&amp;nbsp;" style="ellipse;whiteSpace=wrap;html=1;align=center;" parent="1" vertex="1">
          <mxGeometry x="500" y="510" width="110" height="50" as="geometry" />
        </mxCell>
        <mxCell id="uxk_E3VfZ14eT021Ah-2-40" value="total_copies" style="ellipse;whiteSpace=wrap;html=1;align=center;" parent="1" vertex="1">
          <mxGeometry x="500" y="340" width="100" height="40" as="geometry" />
        </mxCell>
        <mxCell id="uxk_E3VfZ14eT021Ah-2-41" value="" style="endArrow=none;html=1;rounded=0;entryX=0.5;entryY=0;entryDx=0;entryDy=0;exitX=0.75;exitY=1;exitDx=0;exitDy=0;" parent="1" source="uxk_E3VfZ14eT021Ah-2-32" target="uxk_E3VfZ14eT021Ah-2-38" edge="1">
          <mxGeometry width="50" height="50" relative="1" as="geometry">
            <mxPoint x="450" y="290" as="sourcePoint" />
            <mxPoint x="500" y="240" as="targetPoint" />
          </mxGeometry>
        </mxCell>
        <mxCell id="uxk_E3VfZ14eT021Ah-2-42" value="" style="endArrow=none;html=1;rounded=0;entryX=0.5;entryY=0;entryDx=0;entryDy=0;exitX=0.5;exitY=1;exitDx=0;exitDy=0;" parent="1" source="uxk_E3VfZ14eT021Ah-2-32" target="uxk_E3VfZ14eT021Ah-2-37" edge="1">
          <mxGeometry width="50" height="50" relative="1" as="geometry">
            <mxPoint x="450" y="290" as="sourcePoint" />
            <mxPoint x="500" y="240" as="targetPoint" />
          </mxGeometry>
        </mxCell>
        <mxCell id="uxk_E3VfZ14eT021Ah-2-43" value="" style="endArrow=none;html=1;rounded=0;entryX=0.5;entryY=1;entryDx=0;entryDy=0;exitX=0.75;exitY=0;exitDx=0;exitDy=0;" parent="1" source="uxk_E3VfZ14eT021Ah-2-32" target="uxk_E3VfZ14eT021Ah-2-36" edge="1">
          <mxGeometry width="50" height="50" relative="1" as="geometry">
            <mxPoint x="730" y="428" as="sourcePoint" />
            <mxPoint x="500" y="240" as="targetPoint" />
          </mxGeometry>
        </mxCell>
        <mxCell id="uxk_E3VfZ14eT021Ah-2-44" value="" style="endArrow=none;html=1;rounded=0;entryX=1;entryY=0.5;entryDx=0;entryDy=0;exitX=0;exitY=0.5;exitDx=0;exitDy=0;" parent="1" source="uxk_E3VfZ14eT021Ah-2-32" target="uxk_E3VfZ14eT021Ah-2-33" edge="1">
          <mxGeometry width="50" height="50" relative="1" as="geometry">
            <mxPoint x="450" y="290" as="sourcePoint" />
            <mxPoint x="500" y="240" as="targetPoint" />
          </mxGeometry>
        </mxCell>
        <mxCell id="uxk_E3VfZ14eT021Ah-2-45" value="" style="endArrow=none;html=1;rounded=0;entryX=1;entryY=1;entryDx=0;entryDy=0;exitX=0;exitY=0.25;exitDx=0;exitDy=0;" parent="1" source="uxk_E3VfZ14eT021Ah-2-32" target="uxk_E3VfZ14eT021Ah-2-35" edge="1">
          <mxGeometry width="50" height="50" relative="1" as="geometry">
            <mxPoint x="450" y="290" as="sourcePoint" />
            <mxPoint x="500" y="240" as="targetPoint" />
          </mxGeometry>
        </mxCell>
        <mxCell id="uxk_E3VfZ14eT021Ah-2-46" value="" style="endArrow=none;html=1;rounded=0;entryX=1;entryY=0.5;entryDx=0;entryDy=0;exitX=0;exitY=0;exitDx=0;exitDy=0;" parent="1" source="uxk_E3VfZ14eT021Ah-2-32" target="uxk_E3VfZ14eT021Ah-2-40" edge="1">
          <mxGeometry width="50" height="50" relative="1" as="geometry">
            <mxPoint x="450" y="290" as="sourcePoint" />
            <mxPoint x="500" y="240" as="targetPoint" />
          </mxGeometry>
        </mxCell>
        <mxCell id="uxk_E3VfZ14eT021Ah-2-47" value="" style="endArrow=none;html=1;rounded=0;entryX=0;entryY=1;entryDx=0;entryDy=0;exitX=0.571;exitY=0.016;exitDx=0;exitDy=0;exitPerimeter=0;" parent="1" source="uxk_E3VfZ14eT021Ah-2-39" target="uxk_E3VfZ14eT021Ah-2-32" edge="1">
          <mxGeometry width="50" height="50" relative="1" as="geometry">
            <mxPoint x="450" y="290" as="sourcePoint" />
            <mxPoint x="500" y="240" as="targetPoint" />
          </mxGeometry>
        </mxCell>
        <mxCell id="uxk_E3VfZ14eT021Ah-2-48" value="&lt;span style=&quot;font-size: 20px;&quot;&gt;Borrowing_records&amp;nbsp;&lt;/span&gt;" style="whiteSpace=wrap;html=1;align=center;" parent="1" vertex="1">
          <mxGeometry x="540" y="140" width="210" height="40" as="geometry" />
        </mxCell>
        <mxCell id="uxk_E3VfZ14eT021Ah-2-49" value="Id" style="ellipse;whiteSpace=wrap;html=1;align=center;fontStyle=4;" parent="1" vertex="1">
          <mxGeometry x="480" y="50" width="100" height="40" as="geometry" />
        </mxCell>
        <mxCell id="uxk_E3VfZ14eT021Ah-2-50" value="borrow_date" style="ellipse;whiteSpace=wrap;html=1;align=center;" parent="1" vertex="1">
          <mxGeometry x="700" y="40" width="100" height="40" as="geometry" />
        </mxCell>
        <mxCell id="uxk_E3VfZ14eT021Ah-2-51" value="return_date" style="ellipse;whiteSpace=wrap;html=1;align=center;" parent="1" vertex="1">
          <mxGeometry x="600" y="50" width="100" height="40" as="geometry" />
        </mxCell>
        <mxCell id="uxk_E3VfZ14eT021Ah-2-52" value="status" style="ellipse;whiteSpace=wrap;html=1;align=center;" parent="1" vertex="1">
          <mxGeometry x="740" y="100" width="100" height="40" as="geometry" />
        </mxCell>
        <mxCell id="uxk_E3VfZ14eT021Ah-2-53" value="" style="endArrow=none;html=1;rounded=0;exitX=0.5;exitY=1;exitDx=0;exitDy=0;entryX=0.5;entryY=0;entryDx=0;entryDy=0;" parent="1" source="uxk_E3VfZ14eT021Ah-2-50" target="uxk_E3VfZ14eT021Ah-2-48" edge="1">
          <mxGeometry width="50" height="50" relative="1" as="geometry">
            <mxPoint x="450" y="290" as="sourcePoint" />
            <mxPoint x="500" y="240" as="targetPoint" />
          </mxGeometry>
        </mxCell>
        <mxCell id="uxk_E3VfZ14eT021Ah-2-54" value="" style="endArrow=none;html=1;rounded=0;entryX=0.5;entryY=1;entryDx=0;entryDy=0;exitX=0.5;exitY=0;exitDx=0;exitDy=0;" parent="1" source="uxk_E3VfZ14eT021Ah-2-48" target="uxk_E3VfZ14eT021Ah-2-51" edge="1">
          <mxGeometry width="50" height="50" relative="1" as="geometry">
            <mxPoint x="500" y="240" as="sourcePoint" />
            <mxPoint x="500" y="240" as="targetPoint" />
          </mxGeometry>
        </mxCell>
        <mxCell id="uxk_E3VfZ14eT021Ah-2-55" value="" style="endArrow=none;html=1;rounded=0;exitX=0;exitY=0.5;exitDx=0;exitDy=0;entryX=0.75;entryY=0;entryDx=0;entryDy=0;" parent="1" source="uxk_E3VfZ14eT021Ah-2-52" target="uxk_E3VfZ14eT021Ah-2-48" edge="1">
          <mxGeometry width="50" height="50" relative="1" as="geometry">
            <mxPoint x="450" y="290" as="sourcePoint" />
            <mxPoint x="500" y="290" as="targetPoint" />
          </mxGeometry>
        </mxCell>
        <mxCell id="uxk_E3VfZ14eT021Ah-2-56" value="" style="endArrow=none;html=1;rounded=0;entryX=0.628;entryY=1.09;entryDx=0;entryDy=0;entryPerimeter=0;exitX=0.5;exitY=0;exitDx=0;exitDy=0;" parent="1" source="uxk_E3VfZ14eT021Ah-2-48" target="uxk_E3VfZ14eT021Ah-2-49" edge="1">
          <mxGeometry width="50" height="50" relative="1" as="geometry">
            <mxPoint x="450" y="290" as="sourcePoint" />
            <mxPoint x="500" y="240" as="targetPoint" />
          </mxGeometry>
        </mxCell>
        <mxCell id="uxk_E3VfZ14eT021Ah-2-57" value="Borrowing_Record" style="shape=rhombus;perimeter=rhombusPerimeter;whiteSpace=wrap;html=1;align=center;" parent="1" vertex="1">
          <mxGeometry x="285" y="130" width="140" height="70" as="geometry" />
        </mxCell>
        <mxCell id="uxk_E3VfZ14eT021Ah-2-58" value="" style="endArrow=none;html=1;rounded=0;exitX=1;exitY=0.5;exitDx=0;exitDy=0;entryX=0;entryY=0.5;entryDx=0;entryDy=0;" parent="1" source="uxk_E3VfZ14eT021Ah-2-1" target="uxk_E3VfZ14eT021Ah-2-57" edge="1">
          <mxGeometry relative="1" as="geometry">
            <mxPoint x="400" y="340" as="sourcePoint" />
            <mxPoint x="560" y="340" as="targetPoint" />
          </mxGeometry>
        </mxCell>
        <mxCell id="uxk_E3VfZ14eT021Ah-2-87" value="&lt;font style=&quot;font-size: 16px;&quot;&gt;&lt;b&gt;1&lt;/b&gt;&lt;/font&gt;" style="edgeLabel;html=1;align=center;verticalAlign=middle;resizable=0;points=[];" parent="uxk_E3VfZ14eT021Ah-2-58" vertex="1" connectable="0">
          <mxGeometry x="0.3382" y="1" relative="1" as="geometry">
            <mxPoint as="offset" />
          </mxGeometry>
        </mxCell>
        <mxCell id="uxk_E3VfZ14eT021Ah-2-60" value="" style="shape=link;html=1;rounded=0;exitX=0;exitY=0.5;exitDx=0;exitDy=0;entryX=1;entryY=0.5;entryDx=0;entryDy=0;" parent="1" source="uxk_E3VfZ14eT021Ah-2-48" target="uxk_E3VfZ14eT021Ah-2-57" edge="1">
          <mxGeometry relative="1" as="geometry">
            <mxPoint x="400" y="330" as="sourcePoint" />
            <mxPoint x="560" y="330" as="targetPoint" />
          </mxGeometry>
        </mxCell>
        <mxCell id="uxk_E3VfZ14eT021Ah-2-86" value="&lt;font style=&quot;font-size: 16px;&quot;&gt;&lt;b&gt;N&lt;/b&gt;&lt;/font&gt;" style="edgeLabel;html=1;align=center;verticalAlign=middle;resizable=0;points=[];" parent="uxk_E3VfZ14eT021Ah-2-60" vertex="1" connectable="0">
          <mxGeometry x="0.6894" y="-1" relative="1" as="geometry">
            <mxPoint as="offset" />
          </mxGeometry>
        </mxCell>
        <mxCell id="uxk_E3VfZ14eT021Ah-2-62" value="Borrowing_Record" style="shape=rhombus;perimeter=rhombusPerimeter;whiteSpace=wrap;html=1;align=center;direction=east;" parent="1" vertex="1">
          <mxGeometry x="610" y="260" width="140" height="70" as="geometry" />
        </mxCell>
        <mxCell id="uxk_E3VfZ14eT021Ah-2-64" value="" style="resizable=0;html=1;whiteSpace=wrap;align=right;verticalAlign=bottom;rotation=95;" parent="1" connectable="0" vertex="1">
          <mxGeometry x="660.0044822326851" y="249.99867169349938" as="geometry" />
        </mxCell>
        <mxCell id="uxk_E3VfZ14eT021Ah-2-65" value="" style="endArrow=none;html=1;rounded=0;entryX=0.25;entryY=0;entryDx=0;entryDy=0;exitX=0.5;exitY=1;exitDx=0;exitDy=0;" parent="1" source="uxk_E3VfZ14eT021Ah-2-62" target="uxk_E3VfZ14eT021Ah-2-32" edge="1">
          <mxGeometry relative="1" as="geometry">
            <mxPoint x="702.5" y="280" as="sourcePoint" />
            <mxPoint x="737.5" y="182.5" as="targetPoint" />
          </mxGeometry>
        </mxCell>
        <mxCell id="uxk_E3VfZ14eT021Ah-2-89" value="&lt;font style=&quot;font-size: 17px;&quot;&gt;&lt;b&gt;1&lt;/b&gt;&lt;/font&gt;" style="edgeLabel;html=1;align=center;verticalAlign=middle;resizable=0;points=[];" parent="uxk_E3VfZ14eT021Ah-2-65" vertex="1" connectable="0">
          <mxGeometry x="-0.5024" y="2" relative="1" as="geometry">
            <mxPoint as="offset" />
          </mxGeometry>
        </mxCell>
        <mxCell id="uxk_E3VfZ14eT021Ah-2-66" value="" style="shape=link;html=1;rounded=0;exitX=0.667;exitY=1;exitDx=0;exitDy=0;exitPerimeter=0;" parent="1" source="uxk_E3VfZ14eT021Ah-2-48" target="uxk_E3VfZ14eT021Ah-2-62" edge="1">
          <mxGeometry relative="1" as="geometry">
            <mxPoint x="400" y="290" as="sourcePoint" />
            <mxPoint x="560" y="290" as="targetPoint" />
          </mxGeometry>
        </mxCell>
        <mxCell id="uxk_E3VfZ14eT021Ah-2-88" value="&lt;font style=&quot;font-size: 18px;&quot;&gt;&lt;b&gt;N&lt;/b&gt;&lt;/font&gt;" style="edgeLabel;html=1;align=center;verticalAlign=middle;resizable=0;points=[];" parent="uxk_E3VfZ14eT021Ah-2-66" vertex="1" connectable="0">
          <mxGeometry x="0.6448" y="-1" relative="1" as="geometry">
            <mxPoint as="offset" />
          </mxGeometry>
        </mxCell>
        <mxCell id="uxk_E3VfZ14eT021Ah-2-68" value="Fines" style="whiteSpace=wrap;html=1;align=center;fontStyle=1;fontSize=20;" parent="1" vertex="1">
          <mxGeometry x="220" y="350" width="100" height="40" as="geometry" />
        </mxCell>
        <mxCell id="uxk_E3VfZ14eT021Ah-2-69" value="id" style="ellipse;whiteSpace=wrap;html=1;align=center;fontStyle=4;" parent="1" vertex="1">
          <mxGeometry x="70" y="350" width="100" height="40" as="geometry" />
        </mxCell>
        <mxCell id="uxk_E3VfZ14eT021Ah-2-71" value="paid_date" style="ellipse;whiteSpace=wrap;html=1;align=center;" parent="1" vertex="1">
          <mxGeometry x="250" y="450" width="100" height="40" as="geometry" />
        </mxCell>
        <mxCell id="uxk_E3VfZ14eT021Ah-2-72" value="is_paid" style="ellipse;whiteSpace=wrap;html=1;align=center;" parent="1" vertex="1">
          <mxGeometry x="140" y="450" width="100" height="40" as="geometry" />
        </mxCell>
        <mxCell id="uxk_E3VfZ14eT021Ah-2-73" value="fine_amount" style="ellipse;whiteSpace=wrap;html=1;align=center;" parent="1" vertex="1">
          <mxGeometry x="60" y="410" width="100" height="40" as="geometry" />
        </mxCell>
        <mxCell id="uxk_E3VfZ14eT021Ah-2-74" value="" style="endArrow=none;html=1;rounded=0;entryX=0;entryY=0;entryDx=0;entryDy=0;exitX=0.75;exitY=1;exitDx=0;exitDy=0;" parent="1" source="uxk_E3VfZ14eT021Ah-2-68" target="uxk_E3VfZ14eT021Ah-2-71" edge="1">
          <mxGeometry width="50" height="50" relative="1" as="geometry">
            <mxPoint x="430" y="380" as="sourcePoint" />
            <mxPoint x="480" y="330" as="targetPoint" />
          </mxGeometry>
        </mxCell>
        <mxCell id="uxk_E3VfZ14eT021Ah-2-75" value="" style="endArrow=none;html=1;rounded=0;entryX=0.5;entryY=0;entryDx=0;entryDy=0;exitX=0.5;exitY=1;exitDx=0;exitDy=0;" parent="1" source="uxk_E3VfZ14eT021Ah-2-68" target="uxk_E3VfZ14eT021Ah-2-72" edge="1">
          <mxGeometry width="50" height="50" relative="1" as="geometry">
            <mxPoint x="430" y="380" as="sourcePoint" />
            <mxPoint x="480" y="330" as="targetPoint" />
          </mxGeometry>
        </mxCell>
        <mxCell id="uxk_E3VfZ14eT021Ah-2-76" value="" style="endArrow=none;html=1;rounded=0;entryX=0.25;entryY=1;entryDx=0;entryDy=0;exitX=1;exitY=0;exitDx=0;exitDy=0;" parent="1" source="uxk_E3VfZ14eT021Ah-2-73" target="uxk_E3VfZ14eT021Ah-2-68" edge="1">
          <mxGeometry width="50" height="50" relative="1" as="geometry">
            <mxPoint x="120" y="440" as="sourcePoint" />
            <mxPoint x="480" y="330" as="targetPoint" />
          </mxGeometry>
        </mxCell>
        <mxCell id="uxk_E3VfZ14eT021Ah-2-77" value="" style="endArrow=none;html=1;rounded=0;exitX=1;exitY=0.5;exitDx=0;exitDy=0;entryX=0;entryY=0.5;entryDx=0;entryDy=0;" parent="1" source="uxk_E3VfZ14eT021Ah-2-69" target="uxk_E3VfZ14eT021Ah-2-68" edge="1">
          <mxGeometry width="50" height="50" relative="1" as="geometry">
            <mxPoint x="430" y="380" as="sourcePoint" />
            <mxPoint x="480" y="330" as="targetPoint" />
          </mxGeometry>
        </mxCell>
        <mxCell id="uxk_E3VfZ14eT021Ah-2-79" value="Fines" style="shape=rhombus;perimeter=rhombusPerimeter;whiteSpace=wrap;html=1;align=center;" parent="1" vertex="1">
          <mxGeometry x="390" y="265" width="120" height="60" as="geometry" />
        </mxCell>
        <mxCell id="uxk_E3VfZ14eT021Ah-2-80" value="" style="shape=link;html=1;rounded=0;exitX=1;exitY=0.5;exitDx=0;exitDy=0;entryX=0;entryY=1;entryDx=0;entryDy=0;" parent="1" source="uxk_E3VfZ14eT021Ah-2-68" target="uxk_E3VfZ14eT021Ah-2-79" edge="1">
          <mxGeometry relative="1" as="geometry">
            <mxPoint x="380" y="350" as="sourcePoint" />
            <mxPoint x="540" y="350" as="targetPoint" />
          </mxGeometry>
        </mxCell>
        <mxCell id="uxk_E3VfZ14eT021Ah-2-85" value="&lt;font style=&quot;font-size: 16px;&quot;&gt;1&lt;/font&gt;" style="edgeLabel;html=1;align=center;verticalAlign=middle;resizable=0;points=[];rotation=-30;" parent="uxk_E3VfZ14eT021Ah-2-80" vertex="1" connectable="0">
          <mxGeometry x="0.5747" y="2" relative="1" as="geometry">
            <mxPoint as="offset" />
          </mxGeometry>
        </mxCell>
        <mxCell id="uxk_E3VfZ14eT021Ah-2-82" value="" style="endArrow=none;html=1;rounded=0;entryX=0.25;entryY=1;entryDx=0;entryDy=0;" parent="1" source="uxk_E3VfZ14eT021Ah-2-79" target="uxk_E3VfZ14eT021Ah-2-48" edge="1">
          <mxGeometry relative="1" as="geometry">
            <mxPoint x="380" y="350" as="sourcePoint" />
            <mxPoint x="540" y="350" as="targetPoint" />
          </mxGeometry>
        </mxCell>
        <mxCell id="uxk_E3VfZ14eT021Ah-2-83" value="&lt;font style=&quot;font-size: 16px;&quot;&gt;&lt;b&gt;1&lt;/b&gt;&lt;/font&gt;" style="edgeLabel;html=1;align=center;verticalAlign=middle;resizable=0;points=[];rotation=-40;" parent="uxk_E3VfZ14eT021Ah-2-82" vertex="1" connectable="0">
          <mxGeometry x="-0.592" y="3" relative="1" as="geometry">
            <mxPoint as="offset" />
          </mxGeometry>
        </mxCell>
        <mxCell id="HvZVKasFMbsZxbUhYF04-1" value="&lt;u&gt;id&lt;/u&gt;" style="whiteSpace=wrap;html=1;align=center;" vertex="1" parent="1">
          <mxGeometry x="120" y="620" width="100" height="40" as="geometry" />
        </mxCell>
        <mxCell id="HvZVKasFMbsZxbUhYF04-2" value="&lt;font style=&quot;font-size: 19px;&quot;&gt;&lt;b&gt;Member&lt;/b&gt;&lt;/font&gt;" style="text;html=1;align=center;verticalAlign=middle;resizable=0;points=[];autosize=1;strokeColor=none;fillColor=none;" vertex="1" parent="1">
          <mxGeometry x="10" y="620" width="100" height="40" as="geometry" />
        </mxCell>
        <mxCell id="HvZVKasFMbsZxbUhYF04-5" value="firstname" style="whiteSpace=wrap;html=1;align=center;" vertex="1" parent="1">
          <mxGeometry x="220" y="620" width="100" height="40" as="geometry" />
        </mxCell>
        <mxCell id="HvZVKasFMbsZxbUhYF04-6" value="lastname" style="whiteSpace=wrap;html=1;align=center;" vertex="1" parent="1">
          <mxGeometry x="320" y="620" width="100" height="40" as="geometry" />
        </mxCell>
        <mxCell id="HvZVKasFMbsZxbUhYF04-7" value="phone" style="whiteSpace=wrap;html=1;align=center;" vertex="1" parent="1">
          <mxGeometry x="420" y="620" width="100" height="40" as="geometry" />
        </mxCell>
        <mxCell id="HvZVKasFMbsZxbUhYF04-8" value="email" style="whiteSpace=wrap;html=1;align=center;" vertex="1" parent="1">
          <mxGeometry x="520" y="620" width="100" height="40" as="geometry" />
        </mxCell>
        <mxCell id="HvZVKasFMbsZxbUhYF04-10" value="date_of_regestration" style="whiteSpace=wrap;html=1;align=center;" vertex="1" parent="1">
          <mxGeometry x="620" y="620" width="140" height="40" as="geometry" />
        </mxCell>
        <mxCell id="HvZVKasFMbsZxbUhYF04-12" value="&lt;font style=&quot;font-size: 16px;&quot;&gt;&lt;b&gt;Borrowing_records&amp;nbsp;&lt;/b&gt;&lt;/font&gt;" style="text;html=1;align=center;verticalAlign=middle;resizable=0;points=[];autosize=1;strokeColor=none;fillColor=none;" vertex="1" parent="1">
          <mxGeometry x="10" y="745" width="180" height="30" as="geometry" />
        </mxCell>
        <mxCell id="HvZVKasFMbsZxbUhYF04-13" value="&lt;u&gt;id&lt;/u&gt;" style="whiteSpace=wrap;html=1;align=center;" vertex="1" parent="1">
          <mxGeometry x="180" y="740" width="100" height="40" as="geometry" />
        </mxCell>
        <mxCell id="HvZVKasFMbsZxbUhYF04-14" value="member_id" style="whiteSpace=wrap;html=1;align=center;" vertex="1" parent="1">
          <mxGeometry x="280" y="740" width="100" height="40" as="geometry" />
        </mxCell>
        <mxCell id="HvZVKasFMbsZxbUhYF04-15" value="book_isbn" style="whiteSpace=wrap;html=1;align=center;" vertex="1" parent="1">
          <mxGeometry x="380" y="740" width="100" height="40" as="geometry" />
        </mxCell>
        <mxCell id="HvZVKasFMbsZxbUhYF04-16" value="borrow_date" style="whiteSpace=wrap;html=1;align=center;" vertex="1" parent="1">
          <mxGeometry x="480" y="740" width="100" height="40" as="geometry" />
        </mxCell>
        <mxCell id="HvZVKasFMbsZxbUhYF04-17" value="return_date" style="whiteSpace=wrap;html=1;align=center;" vertex="1" parent="1">
          <mxGeometry x="580" y="740" width="140" height="40" as="geometry" />
        </mxCell>
        <mxCell id="HvZVKasFMbsZxbUhYF04-19" value="status" style="whiteSpace=wrap;html=1;align=center;" vertex="1" parent="1">
          <mxGeometry x="720" y="740" width="100" height="40" as="geometry" />
        </mxCell>
        <mxCell id="HvZVKasFMbsZxbUhYF04-20" value="&lt;u&gt;isbn&lt;/u&gt;" style="whiteSpace=wrap;html=1;align=center;" vertex="1" parent="1">
          <mxGeometry x="108" y="980" width="100" height="40" as="geometry" />
        </mxCell>
        <mxCell id="HvZVKasFMbsZxbUhYF04-21" value="&lt;font style=&quot;font-size: 19px;&quot;&gt;&lt;b&gt;Book&lt;/b&gt;&lt;/font&gt;" style="text;html=1;align=center;verticalAlign=middle;resizable=0;points=[];autosize=1;strokeColor=none;fillColor=none;" vertex="1" parent="1">
          <mxGeometry x="23" y="980" width="70" height="40" as="geometry" />
        </mxCell>
        <mxCell id="HvZVKasFMbsZxbUhYF04-22" value="title" style="whiteSpace=wrap;html=1;align=center;" vertex="1" parent="1">
          <mxGeometry x="208" y="980" width="100" height="40" as="geometry" />
        </mxCell>
        <mxCell id="HvZVKasFMbsZxbUhYF04-23" value="author" style="whiteSpace=wrap;html=1;align=center;" vertex="1" parent="1">
          <mxGeometry x="308" y="980" width="100" height="40" as="geometry" />
        </mxCell>
        <mxCell id="HvZVKasFMbsZxbUhYF04-24" value="genre" style="whiteSpace=wrap;html=1;align=center;" vertex="1" parent="1">
          <mxGeometry x="408" y="980" width="100" height="40" as="geometry" />
        </mxCell>
        <mxCell id="HvZVKasFMbsZxbUhYF04-25" value="cover" style="whiteSpace=wrap;html=1;align=center;" vertex="1" parent="1">
          <mxGeometry x="508" y="980" width="100" height="40" as="geometry" />
        </mxCell>
        <mxCell id="HvZVKasFMbsZxbUhYF04-26" value="copies_available&amp;nbsp;" style="whiteSpace=wrap;html=1;align=center;" vertex="1" parent="1">
          <mxGeometry x="608" y="980" width="110" height="40" as="geometry" />
        </mxCell>
        <mxCell id="HvZVKasFMbsZxbUhYF04-27" value="total_copies" style="whiteSpace=wrap;html=1;align=center;" vertex="1" parent="1">
          <mxGeometry x="718" y="980" width="110" height="40" as="geometry" />
        </mxCell>
        <mxCell id="HvZVKasFMbsZxbUhYF04-28" value="" style="curved=1;endArrow=classic;html=1;rounded=0;exitX=0.5;exitY=0;exitDx=0;exitDy=0;entryX=0.5;entryY=1;entryDx=0;entryDy=0;" edge="1" parent="1" source="HvZVKasFMbsZxbUhYF04-14" target="HvZVKasFMbsZxbUhYF04-1">
          <mxGeometry width="50" height="50" relative="1" as="geometry">
            <mxPoint x="330" y="880" as="sourcePoint" />
            <mxPoint x="380" y="830" as="targetPoint" />
            <Array as="points">
              <mxPoint x="200" y="710" />
              <mxPoint x="150" y="690" />
            </Array>
          </mxGeometry>
        </mxCell>
        <mxCell id="HvZVKasFMbsZxbUhYF04-29" value="&lt;u&gt;id&lt;/u&gt;" style="whiteSpace=wrap;html=1;align=center;" vertex="1" parent="1">
          <mxGeometry x="85" y="860" width="100" height="40" as="geometry" />
        </mxCell>
        <mxCell id="HvZVKasFMbsZxbUhYF04-30" value="borrowing_id" style="whiteSpace=wrap;html=1;align=center;" vertex="1" parent="1">
          <mxGeometry x="185" y="860" width="100" height="40" as="geometry" />
        </mxCell>
        <mxCell id="HvZVKasFMbsZxbUhYF04-31" value="fine_amount" style="whiteSpace=wrap;html=1;align=center;" vertex="1" parent="1">
          <mxGeometry x="285" y="860" width="100" height="40" as="geometry" />
        </mxCell>
        <mxCell id="HvZVKasFMbsZxbUhYF04-32" value="is_paid" style="whiteSpace=wrap;html=1;align=center;" vertex="1" parent="1">
          <mxGeometry x="385" y="860" width="100" height="40" as="geometry" />
        </mxCell>
        <mxCell id="HvZVKasFMbsZxbUhYF04-33" value="paid_date" style="whiteSpace=wrap;html=1;align=center;" vertex="1" parent="1">
          <mxGeometry x="485" y="860" width="100" height="40" as="geometry" />
        </mxCell>
        <mxCell id="HvZVKasFMbsZxbUhYF04-36" value="&lt;font style=&quot;font-size: 19px;&quot;&gt;&lt;b style=&quot;&quot;&gt;Fines&lt;/b&gt;&lt;/font&gt;" style="text;html=1;align=center;verticalAlign=middle;resizable=0;points=[];autosize=1;strokeColor=none;fillColor=none;" vertex="1" parent="1">
          <mxGeometry x="15" y="860" width="70" height="40" as="geometry" />
        </mxCell>
        <mxCell id="HvZVKasFMbsZxbUhYF04-38" value="" style="curved=1;endArrow=classic;html=1;rounded=0;exitX=0.5;exitY=0;exitDx=0;exitDy=0;entryX=0.5;entryY=1;entryDx=0;entryDy=0;" edge="1" parent="1" source="HvZVKasFMbsZxbUhYF04-30" target="HvZVKasFMbsZxbUhYF04-13">
          <mxGeometry width="50" height="50" relative="1" as="geometry">
            <mxPoint x="360" y="770" as="sourcePoint" />
            <mxPoint x="410" y="720" as="targetPoint" />
            <Array as="points" />
          </mxGeometry>
        </mxCell>
        <mxCell id="HvZVKasFMbsZxbUhYF04-39" value="" style="curved=1;endArrow=classic;html=1;rounded=0;exitX=0.75;exitY=1;exitDx=0;exitDy=0;entryX=0.5;entryY=0;entryDx=0;entryDy=0;" edge="1" parent="1" source="HvZVKasFMbsZxbUhYF04-15" target="HvZVKasFMbsZxbUhYF04-20">
          <mxGeometry width="50" height="50" relative="1" as="geometry">
            <mxPoint x="360" y="770" as="sourcePoint" />
            <mxPoint x="410" y="720" as="targetPoint" />
            <Array as="points">
              <mxPoint x="510" y="780" />
              <mxPoint x="780" y="930" />
            </Array>
          </mxGeometry>
        </mxCell>
        <mxCell id="HvZVKasFMbsZxbUhYF04-40" value="&lt;span style=&quot;font-size: 17px;&quot;&gt;عبد الرحمن عاطف رمضان رمضان&lt;/span&gt;" style="text;html=1;align=center;verticalAlign=middle;resizable=0;points=[];autosize=1;strokeColor=none;fillColor=none;" vertex="1" parent="1">
          <mxGeometry x="581" width="220" height="30" as="geometry" />
        </mxCell>
      </root>
    </mxGraphModel>
  </diagram>
</mxfile>
